<?xml version="1.0" encoding="UTF-8" standalone="no"?>
<!-- Generator: Adobe Illustrator 16.0.0, SVG Export Plug-In . SVG Version: 6.00 Build 0)  -->

<svg
   xmlns:dc="http://purl.org/dc/elements/1.1/"
   xmlns:cc="http://creativecommons.org/ns#"
   xmlns:rdf="http://www.w3.org/1999/02/22-rdf-syntax-ns#"
   xmlns:svg="http://www.w3.org/2000/svg"
   xmlns="http://www.w3.org/2000/svg"
   xmlns:sodipodi="http://sodipodi.sourceforge.net/DTD/sodipodi-0.dtd"
   xmlns:inkscape="http://www.inkscape.org/namespaces/inkscape"
   version="1.1"
   id="Layer_1"
   x="0px"
   y="0px"
   width="126px"
   height="126px"
   viewBox="0 0 126 126"
   enable-background="new 0 0 126 126"
   xml:space="preserve"
   inkscape:version="0.48.5 r10040"
   sodipodi:docname="ovpn.svg"><metadata
   id="metadata3036"><rdf:RDF><cc:Work
       rdf:about=""><dc:format>image/svg+xml</dc:format><dc:type
         rdf:resource="http://purl.org/dc/dcmitype/StillImage" /><dc:title></dc:title></cc:Work></rdf:RDF></metadata><defs
   id="defs3034" /><sodipodi:namedview
   pagecolor="#ffffff"
   bordercolor="#666666"
   borderopacity="1"
   objecttolerance="10"
   gridtolerance="10"
   guidetolerance="10"
   inkscape:pageopacity="0"
   inkscape:pageshadow="2"
   inkscape:window-width="1920"
   inkscape:window-height="1017"
   id="namedview3032"
   showgrid="false"
   inkscape:zoom="6.5873016"
   inkscape:cx="60.343373"
   inkscape:cy="63"
   inkscape:window-x="1358"
   inkscape:window-y="-8"
   inkscape:window-maximized="1"
   inkscape:current-layer="Layer_1" />

<g
   id="g3818"
   style="fill:#4d4d4d"><path
     id="path3030"
     d="m 102.745,48.964 h -2.449 V 37.146 c 0,-0.074 -0.012,-0.148 -0.021,-0.223 -0.004,-0.469 -0.154,-0.93 -0.475,-1.295 L 80.133,13.163 C 80.127,13.157 80.121,13.155 80.117,13.149 80,13.018 79.863,12.909 79.719,12.815 79.676,12.786 79.633,12.762 79.588,12.737 79.463,12.669 79.33,12.612 79.193,12.571 79.156,12.561 79.123,12.546 79.086,12.536 78.938,12.501 78.783,12.479 78.627,12.479 H 30.295 c -2.207,0 -4,1.795 -4,4 v 32.484 h -2.449 c -3.157,0 -5.717,2.559 -5.717,5.717 v 29.73 c 0,3.156 2.56,5.717 5.717,5.717 h 2.449 v 20.352 c 0,2.205 1.793,4 4,4 h 66 c 2.205,0 4,-1.795 4,-4 V 90.128 h 2.449 c 3.157,0 5.717,-2.561 5.717,-5.717 v -29.73 c 0,-3.159 -2.559,-5.717 -5.716,-5.717 z M 30.295,16.479 h 46.332 v 20.465 c 0,1.105 0.896,2 2,2 h 17.668 v 10.02 h -66 V 16.479 z m 44.882,61.619 v 5.801 H 56.093 V 53.35 h 6.937 v 24.748 h 12.147 z m -49.132,5.8 8.839,-15.455 -8.522,-15.093 h 7.932 l 2.674,5.574 c 0.907,1.857 1.587,3.355 2.313,5.076 h 0.089 c 0.727,-1.949 1.315,-3.309 2.085,-5.076 l 2.584,-5.574 h 7.887 L 43.313,68.262 52.38,83.899 H 44.402 L 41.637,78.37 c -1.132,-2.131 -1.858,-3.717 -2.719,-5.484 h -0.091 c -0.635,1.768 -1.404,3.354 -2.356,5.484 l -2.539,5.529 h -7.887 z m 70.25,25.498 h -66 V 90.128 h 66 v 19.268 z M 86.733,84.354 c -3.489,0 -6.935,-0.908 -8.656,-1.859 l 1.404,-5.711 c 1.859,0.951 4.715,1.904 7.661,1.904 3.174,0 4.85,-1.314 4.85,-3.309 0,-1.904 -1.45,-2.992 -5.122,-4.307 -5.076,-1.768 -8.386,-4.578 -8.386,-9.021 0,-5.213 4.352,-9.201 11.561,-9.201 3.443,0 5.982,0.727 7.795,1.541 l -1.541,5.576 c -1.224,-0.59 -3.4,-1.451 -6.391,-1.451 -2.991,0 -4.441,1.359 -4.441,2.947 0,1.949 1.721,2.811 5.665,4.307 5.393,1.994 7.932,4.803 7.932,9.109 -10e-4,5.123 -3.944,9.475 -12.331,9.475 z"
     style="fill:#4d4d4d"
     inkscape:connector-curvature="0" /><rect
     y="51.007229"
     x="22.012049"
     height="36.889156"
     width="82.58313"
     id="rect3038"
     style="fill:#4d4d4d;fill-opacity:1;fill-rule:evenodd;stroke:none;stroke-width:1px;stroke-linecap:butt;stroke-linejoin:miter;stroke-opacity:1" /></g><text
   xml:space="preserve"
   style="font-size:44.20508575px;font-style:normal;font-weight:normal;line-height:125%;letter-spacing:0px;word-spacing:0px;fill:#000000;fill-opacity:1;stroke:none;font-family:Sans"
   x="22.503681"
   y="89.922737"
   id="text3808"
   sodipodi:linespacing="125%"
   transform="scale(1.1051272,0.90487322)"><tspan
     sodipodi:role="line"
     id="tspan3810"
     x="22.503681"
     y="89.922737"
     style="font-size:39.78458023px;font-style:normal;font-variant:normal;font-weight:normal;font-stretch:normal;fill:#ffffff;fill-opacity:1;font-family:Antonio;-inkscape-font-specification:Antonio">ovpn</tspan></text>
</svg>